<?xml version="1.0" encoding="UTF-8"?>
<svg width="43px" height="19px" viewBox="0 0 43 19" version="1.1" xmlns="http://www.w3.org/2000/svg" xmlns:xlink="http://www.w3.org/1999/xlink">
    <!-- Generator: Sketch 43 (38999) - http://www.bohemiancoding.com/sketch -->
    <title>raml</title>
    <desc>Created with Sketch.</desc>
    <defs></defs>
    <g id="Page-1" stroke="none" stroke-width="1" fill="none" fill-rule="evenodd">
        <g id="raml" fill-rule="nonzero" fill="#73CFEE">
            <path d="M1.81645946,0.409209857 C1.69082973,0.156561208 1.41856419,0 1.10324054,0 C0.817522973,0 0.533316216,0.160125596 0.395890541,0.39845628 L0.310471622,0.552661367 C0.198235811,0.755317965 0.261050676,1.04941017 0.373025,1.25091892 L1.71523514,3.66530843 L6.85315405,12.9480318 L6.62949595,12.9480318 L6.63641081,12.9606582 L0.0254513514,12.9606582 L0.981010135,14.6960016 L7.82033446,14.6960016 L9.88660068,18.4139603 L9.89156892,18.4225087 C10.0190581,18.6344992 10.232373,18.9892464 10.67905,18.9892464 C11.1366223,18.9892464 11.5088919,18.6022687 11.5088919,18.1266343 C11.5088919,17.9630954 11.4694074,17.8235103 11.384802,17.6883355 L1.81645946,0.409209857 Z" id="Shape"></path>
            <path d="M42.0251203,17.2642941 L33.2044547,17.2642941 L33.2044547,0.862219396 C33.2044547,0.386796502 32.8323595,-3.58824082e-13 32.3749905,-3.58824082e-13 C31.9176507,-3.58824082e-13 31.5454682,0.386796502 31.5454682,0.862219396 L31.5454682,18.1266343 C31.5454682,18.6022687 31.9176216,18.9892464 32.3749905,18.9892464 L42.9837878,18.9892464 L42.0251203,17.2642941 Z" id="Shape" transform="translate(37.264628, 9.494623) scale(1, -1) translate(-37.264628, -9.494623) "></path>
            <path d="M37.9938412,14.6363132 L33.2116892,14.6363132 L33.2116892,8.20244197 C33.2116892,7.72701908 32.8395939,7.34022258 32.382225,7.34022258 C31.9248851,7.34022258 31.5527027,7.72701908 31.5527027,8.20244197 L31.5527027,15.4986534 C31.5527027,15.9742878 31.9248561,16.3612655 32.382225,16.3612655 L38.9525088,16.3612655 L37.9938412,14.6363132 Z" id="Shape-Copy" transform="translate(35.252606, 11.850744) scale(1, -1) translate(-35.252606, -11.850744) "></path>
            <path d="M24.7119547,0.841165342 C24.7011176,0.375468998 24.3335838,0 23.8829554,0 C23.8619493,0 23.8415243,0.0010572337 23.8213899,0.00271860095 C23.8007905,0.0010572337 23.780075,0 23.7593595,0 C23.4436291,0 23.171073,0.156863275 23.0457628,0.409995231 L17.5685797,10.4184944 L12.0915419,0.409965024 C11.9661446,0.156833068 11.6935885,0 11.3779743,0 C11.0922568,0 10.8079919,0.160125596 10.6706534,0.39845628 L10.5851764,0.552721781 C10.4732892,0.754713831 10.5348838,1.04865501 10.6454345,1.25034499 L16.7524514,12.3905676 L16.7582331,12.4005962 C16.8857804,12.6125866 17.0991534,12.9673339 17.5458014,12.9673339 C17.5534716,12.9673339 17.5609676,12.9669714 17.5686088,12.9666995 C17.5762209,12.9670016 17.583775,12.9673339 17.5914453,12.9673339 C18.0380932,12.9673339 18.2514953,12.6125866 18.3789554,12.4005962 L23.053375,3.87424801 L23.053375,18.126725 C23.053375,18.6023593 23.4255574,18.989337 23.8828973,18.989337 C24.3402662,18.989337 24.7124486,18.6023593 24.7124486,18.126725 L24.7124486,0.862219396 C24.7124486,0.857688394 24.7121291,0.853187599 24.7120709,0.848656598 L24.7140466,0.845062003 L24.7119547,0.841165342 Z" id="Shape"></path>
        </g>
    </g>
</svg>