<svg width="88" height="36" viewBox="0 0 88 36" xmlns="http://www.w3.org/2000/svg"><title>AML</title><g fill="#3273DC" fill-rule="nonzero"><path d="M86.052 32.565H67.99V1.763c0-.862-.74-1.646-1.724-1.646-.985 0-1.724.706-1.724 1.646V34.21c0 .863.739 1.646 1.724 1.646H87.94l-1.888-3.291zM50.634 1.687c0-.863-.738-1.57-1.723-1.57h-.328c-.656 0-1.23.314-1.476.785L35.867 19.74 24.627.902c-.246-.47-.82-.785-1.477-.785-.574 0-1.148.314-1.477.785l-.164.314c-.246.392-.082.942.164 1.334l12.47 20.957c.247.392.657 1.099 1.642 1.099h.164c.902 0 1.312-.707 1.64-1.099l9.6-16.012v26.843c0 .864.738 1.649 1.722 1.649.903 0 1.723-.707 1.723-1.649V1.687zM3.841.902c-.246-.47-.82-.785-1.476-.785-.573 0-1.147.314-1.475.785l-.164.314C.48 1.608.644 2.158.89 2.55l2.705 4.553 10.493 17.503H.07l1.968 3.296h13.936l4.262 6.986c.246.392.656 1.099 1.64 1.099.902 0 1.721-.707 1.721-1.649 0-.313-.082-.549-.246-.863L3.841.902z"/></g></svg>